<svg width="185" height="54" viewBox="0 0 185 54" fill="none" xmlns="http://www.w3.org/2000/svg">
<path d="M24.7819 0C11.0952 0 0 11.2917 0 25.2208C0 39.1499 11.0952 50.4416 24.7819 50.4416C38.4685 50.4416 49.5638 39.1499 49.5638 25.2208C49.5638 11.2917 38.4685 0 24.7819 0ZM24.7819 50.0702C11.2968 50.0702 0.364919 38.9448 0.364919 25.2208C0.364919 11.4968 11.2968 0.371399 24.7819 0.371399C38.267 0.371399 49.1988 11.4969 49.1988 25.2208C49.1988 38.9447 38.267 50.0702 24.7819 50.0702ZM24.6652 2.36763C12.1447 2.36763 1.99495 12.8119 1.99495 25.6956C1.99495 37.1974 10.0845 46.7542 20.728 48.6721C21.9984 48.9064 23.2875 49.024 24.5793 49.0236C24.5937 49.0236 24.6079 49.023 24.6222 49.023C24.6366 49.023 24.6508 49.0236 24.6652 49.0236C37.1856 49.0236 47.3354 38.5793 47.3354 25.6956C47.3354 12.8119 37.1856 2.36763 24.6652 2.36763ZM24.6652 2.78046C36.964 2.78046 46.9342 13.0399 46.9342 25.6956C46.9533 31.4269 44.85 36.9623 41.03 41.2349C44.4143 37.1612 46.2593 32.0277 46.2427 26.7316C46.2427 14.4201 36.5437 4.4397 24.5793 4.4397C12.6149 4.4397 2.91589 14.4201 2.91589 26.7316C2.90691 30.7453 3.96345 34.6893 5.9776 38.161C3.62738 34.4289 2.38538 30.1061 2.39613 25.6956C2.39613 13.0399 12.3663 2.78046 24.6652 2.78046ZM24.6652 48.6107C22.4865 48.612 20.3201 48.2849 18.2389 47.6405C9.58288 44.864 3.29925 36.553 3.29925 26.7316C3.29925 14.638 12.8267 4.83419 24.5793 4.83419C36.3319 4.83419 45.8594 14.638 45.8594 26.7316C45.8594 37.8589 37.7935 47.047 27.35 48.4444C26.4594 48.5549 25.5627 48.6105 24.6652 48.6107ZM44.4072 28.0998C44.4082 29.7299 44.2064 31.3537 43.8066 32.934C43.8087 32.9215 43.81 32.9088 43.8121 32.8964C44.1236 31.4875 44.2804 30.0488 44.2799 28.6059C44.2799 17.7671 35.5672 8.9805 24.8195 8.9805C14.0718 8.9805 5.35909 17.7671 5.35909 28.6059C5.35946 29.571 5.43001 30.5348 5.57018 31.4897C5.61777 31.976 5.67763 32.4584 5.75717 32.934C5.07197 30.2367 4.96823 27.4245 5.45282 24.684C5.9374 21.9436 6.99924 19.3375 8.56787 17.0387C10.1365 14.74 12.176 12.8011 14.5512 11.3507C16.9263 9.9003 19.5828 8.97161 22.3442 8.62622C25.1057 8.28084 27.909 8.52666 30.5682 9.34737C33.2274 10.1681 35.6817 11.5449 37.7682 13.3865C39.8547 15.2281 41.5257 17.4924 42.6703 20.0291C43.8149 22.5658 44.407 25.3168 44.4072 28.0998ZM68.9796 0.490055V6.53455C69.1328 5.61408 70.2375 0.0295203 75.4539 0.0295203C78.6452 0.0295203 82.7564 0.980995 82.7564 4.96963C82.7564 7.79276 80.3019 9.75651 77.2335 9.97112C81.0692 10.3088 84.7201 11.5668 84.7201 15.9238C84.7201 21.9993 79.2283 21.8765 74.3803 21.8765H64.6223V0.490055H68.9796ZM68.9796 9.78721H74.7481C76.5891 9.75651 78.3078 8.62113 78.3078 4.6936C78.3078 1.28772 77.0189 0.520755 75.1779 0.520755C70.3299 0.520744 69.1024 7.0562 68.9796 9.78721ZM68.9796 10.2475V21.3549H73.1217C77.8165 21.3549 80.1791 21.0789 80.1791 15.9238C80.1791 11.4747 77.8165 10.2475 73.5516 10.2475H68.9796ZM93.1594 0.490068H97.7922L106.077 21.8765H101.505L98.0992 13.1317H89.3541L86.3476 21.8765H85.795L93.1594 0.490068ZM89.5383 12.6101H97.915L93.4658 1.16493L89.5383 12.6101ZM108.532 0.490055H112.889V10.5235L115.62 10.5542C116.338 10.5465 117.056 10.5876 117.768 10.677L124.089 0.490055H124.672L118.32 10.7384C124.887 11.6896 126.85 15.6785 126.85 21.8765H122.34C122.34 16.6911 122.217 10.953 115.559 10.953H112.889V21.8765H108.532V0.490055ZM128.846 0.490055H133.203V13.2238C133.203 20.1277 134.338 21.7844 138.297 21.7844C142.869 21.7844 146.274 16.9671 146.735 10.8609V0.490055H151.091V21.8765H146.735V14.2364C145.415 18.6241 142.347 22.4288 138.297 22.4288C131.822 22.4288 128.846 19.8206 128.846 13.2238L128.846 0.490055ZM71.1533 36.6454C75.6803 36.6454 76.1545 39.7925 76.1545 43.3706H67.8556C67.9849 45.4832 68.6533 47.7247 71.1533 47.7247C73.0178 47.7738 74.8355 47.1373 76.2621 45.9358L76.4347 46.1513C76.068 46.453 74.4949 48.0914 71.1533 48.0914C67.0796 48.0914 64.6223 45.6554 64.6223 42.379C64.6223 38.65 67.748 36.6454 71.1533 36.6454ZM67.834 43.0258H75.7452C75.7452 39.7925 75.12 36.9901 71.1533 36.9901C68.0714 36.9901 67.748 40.7407 67.834 43.0258ZM78.0528 36.9687H81.1136V43.2627C81.5663 40.5685 82.73 36.6237 86.0283 36.6237C89.4769 36.6237 90.943 38.6714 90.943 42.7887V47.7463H87.8605V40.1159C87.8605 37.7661 87.3213 36.9901 86.0283 36.9901C81.7172 36.9901 81.1137 44.5992 81.1137 47.7463H78.0528L78.0528 36.9687ZM91.6991 37.2919V36.9471H93.5746V32.6792H96.6571V36.9471H101.679V37.2919H96.6571V44.6209C96.6571 46.9703 97.7132 47.7247 98.9846 47.7247C100.903 47.7247 102.326 46.2375 103.145 43.3059L103.49 43.3922C102.865 45.5691 101.636 48.0914 99.0062 48.0914C95.4284 48.0914 93.5746 46.6902 93.5746 41.2796V37.2919H91.6991ZM109.376 36.6454C113.903 36.6454 114.377 39.7925 114.377 43.3706H106.078C106.207 45.4832 106.876 47.7247 109.376 47.7247C111.24 47.7738 113.058 47.1373 114.485 45.9358L114.657 46.1513C114.291 46.453 112.717 48.0914 109.376 48.0914C105.302 48.0914 102.845 45.6554 102.845 42.379C102.845 38.65 105.971 36.6454 109.376 36.6454ZM106.057 43.0258H113.968C113.968 39.7925 113.343 36.9901 109.376 36.9901C106.294 36.9901 105.971 40.7407 106.057 43.0258ZM116.275 36.9901H119.336V43.2627C119.789 40.5685 120.953 36.6237 124.251 36.6237C125.76 36.6237 126.471 37.6152 126.471 38.5205C126.471 39.8571 125.264 40.6548 124.122 40.9995L123.992 40.6547C124.984 40.3743 126.126 39.6846 126.126 38.5205C126.126 37.7878 125.523 36.9901 124.251 36.9901C119.94 36.9901 119.336 44.5992 119.336 47.7463H116.275L116.275 36.9901ZM127.981 36.9687H131.042V42.4653C131.132 41.8149 131.276 41.1732 131.473 40.5469C132.378 37.8307 133.543 36.6237 135.957 36.6237C139.061 36.6237 141.583 37.874 141.583 42.5083C141.583 47.2721 138.198 48.1127 134.663 48.1127C133.41 48.1203 132.171 47.8401 131.042 47.2937V53.4154H127.981V36.9687ZM131.042 46.9703C131.983 47.5393 133.069 47.8237 134.168 47.7893C136.84 47.7893 138.436 47.0566 138.436 42.5083C138.436 39.3612 137.789 36.9901 135.461 36.9901C131.409 36.9901 131.107 44.1036 131.042 46.9703ZM143.417 36.9901H146.477V43.2627C146.93 40.5685 148.094 36.6237 151.392 36.6237C152.901 36.6237 153.612 37.6152 153.612 38.5205C153.612 39.8571 152.405 40.6548 151.263 40.9995L151.134 40.6547C152.125 40.3743 153.268 39.6846 153.268 38.5205C153.268 37.7878 152.664 36.9901 151.392 36.9901C147.081 36.9901 146.477 44.5992 146.477 47.7463H143.417V36.9901ZM155.123 33.024C155.123 32.6744 155.226 32.3326 155.42 32.0419C155.615 31.7513 155.891 31.5247 156.214 31.3909C156.537 31.2572 156.892 31.2222 157.235 31.2904C157.578 31.3586 157.893 31.527 158.14 31.7742C158.387 32.0215 158.556 32.3364 158.624 32.6793C158.692 33.0222 158.657 33.3776 158.523 33.7006C158.389 34.0236 158.163 34.2996 157.872 34.4938C157.581 34.688 157.239 34.7916 156.89 34.7915C156.657 34.7929 156.427 34.7481 156.212 34.6597C155.997 34.5714 155.801 34.4412 155.637 34.2768C155.473 34.1124 155.343 33.917 155.254 33.702C155.166 33.4869 155.121 33.2565 155.123 33.024ZM155.381 36.9688H158.442V47.7463H155.381V36.9688ZM163.422 43.8878C163.422 46.5393 163.94 47.7463 166.31 47.7463C169.393 47.7463 170.212 47.0566 170.212 45.3753C170.212 44.1896 169.091 43.8665 165.47 43.2197C162.193 42.6378 161.137 41.603 161.137 39.6629C161.137 37.6152 163.013 36.6237 165.642 36.6237C169.76 36.6237 170.88 38.5422 170.88 41.2796L168.811 41.4521C170.492 41.9048 171.484 42.8749 171.484 44.5992C171.484 47.2074 169.651 48.0697 166.31 48.0697C162.711 48.0697 160.685 47.2504 160.685 44.3405L163.422 43.8878ZM162.215 38.8656C162.215 39.9433 162.926 40.3314 165.642 40.8056C166.634 40.9779 168.272 41.2796 168.272 41.3013C168.272 38.5854 168.272 36.9255 165.642 36.9255C163.745 36.9255 162.215 37.5076 162.215 38.8656ZM179.719 36.6454C184.246 36.6454 184.72 39.7925 184.72 43.3706H176.421C176.55 45.4832 177.219 47.7247 179.719 47.7247C181.583 47.7738 183.401 47.1373 184.827 45.9358L185 46.1513C184.633 46.4531 183.06 48.0914 179.719 48.0914C175.645 48.0914 173.188 45.6554 173.188 42.379C173.188 38.65 176.313 36.6454 179.719 36.6454ZM176.399 43.0258H184.311C184.311 39.7925 183.685 36.9901 179.719 36.9901C176.637 36.9901 176.313 40.7407 176.399 43.0258Z" fill="#DD2400"/>
</svg>
